STARTFONT 2.1
COMMENT HP/COL 16500B Small Font
FONT -Misc-Fixed-Medium-R-Normal--14-140-75-75-C-80-ISO8859-1
SIZE 14 75 75
FONTBOUNDINGBOX 7 14 0 -3
METRICSSET 2
STARTPROPERTIES 21
FONT_ASCENT 11
FONT_DESCENT 3
PIXEL_SIZE 14
RESOLUTION_X 75
RESOLUTION_Y 75
POINT_SIZE 140
FACE_NAME "Fixed Medium 8x14"
COPYRIGHT "Hewlett-Packard / Colorado Springs Division 1993."
FOUNDRY "Misc"
FAMILY_NAME "Fixed"
WEIGHT_NAME "Medium"
RELATIVE_WEIGHT 50
SLANT "R"
SPACING "C"
SETWIDTH_NAME "Normal"
RELATIVE_SETWIDTH 50
ADD_STYLE_NAME ""
AVERAGE_WIDTH 80
DEFAULT_CHAR 32
CHARSET_REGISTRY "ISO8859"
CHARSET_ENCODING "1"
ENDPROPERTIES
CHARS 128
STARTCHAR HP
ENCODING 0
SWIDTH 549 0
DWIDTH 8 0
BBX 8 14 0 -3
VVECTOR 4 11
SWIDTH1 0 -960
DWIDTH1 0 -14
BITMAP 
00
88
88
88
F8
88
88
88
3C
22
22
3C
20
20
ENDCHAR
STARTCHAR char01
ENCODING 1
SWIDTH 549 0
DWIDTH 8 0
BBX 8 14 0 -3
VVECTOR 4 11
SWIDTH1 0 -960
DWIDTH1 0 -14
BITMAP 
00
00
10
10
10
10
10
10
7C
38
10
00
00
00
ENDCHAR
STARTCHAR char02
ENCODING 2
SWIDTH 549 0
DWIDTH 8 0
BBX 8 14 0 -3
VVECTOR 4 11
SWIDTH1 0 -960
DWIDTH1 0 -14
BITMAP 
00
00
10
38
7C
10
10
10
10
10
10
00
00
00
ENDCHAR
STARTCHAR char03
ENCODING 3
SWIDTH 549 0
DWIDTH 8 0
BBX 8 14 0 -3
VVECTOR 4 11
SWIDTH1 0 -960
DWIDTH1 0 -14
BITMAP 
00
00
10
38
7C
10
10
10
7C
38
10
00
00
00
ENDCHAR
STARTCHAR char04
ENCODING 4
SWIDTH 549 0
DWIDTH 8 0
BBX 8 14 0 -3
VVECTOR 4 11
SWIDTH1 0 -960
DWIDTH1 0 -14
BITMAP 
00
00
00
00
00
00
00
00
00
00
7C
00
00
00
ENDCHAR
STARTCHAR char05
ENCODING 5
SWIDTH 549 0
DWIDTH 8 0
BBX 8 14 0 -3
VVECTOR 4 11
SWIDTH1 0 -960
DWIDTH1 0 -14
BITMAP 
00
00
7C
00
00
00
00
00
00
00
00
00
00
00
ENDCHAR
STARTCHAR ACTIVE
ENCODING 6
SWIDTH 549 0
DWIDTH 8 0
BBX 8 14 0 -3
VVECTOR 4 11
SWIDTH1 0 -960
DWIDTH1 0 -14
BITMAP 
00
00
10
38
7C
10
10
10
7C
38
10
00
00
00
ENDCHAR
STARTCHAR char07
ENCODING 7
SWIDTH 549 0
DWIDTH 8 0
BBX 8 14 0 -3
VVECTOR 4 11
SWIDTH1 0 -960
DWIDTH1 0 -14
BITMAP 
00
00
00
00
08
0C
FE
0C
08
00
00
00
00
00
ENDCHAR
STARTCHAR char08
ENCODING 8
SWIDTH 549 0
DWIDTH 8 0
BBX 8 14 0 -3
VVECTOR 4 11
SWIDTH1 0 -960
DWIDTH1 0 -14
BITMAP 
00
00
00
00
20
60
FE
60
20
00
00
00
00
00
ENDCHAR
STARTCHAR char09
ENCODING 9
SWIDTH 549 0
DWIDTH 8 0
BBX 8 14 0 -3
VVECTOR 4 11
SWIDTH1 0 -960
DWIDTH1 0 -14
BITMAP 
00
00
00
00
02
04
FE
10
FE
40
80
00
00
00
ENDCHAR
STARTCHAR char0A
ENCODING 10
SWIDTH 549 0
DWIDTH 8 0
BBX 8 14 0 -3
VVECTOR 4 11
SWIDTH1 0 -960
DWIDTH1 0 -14
BITMAP 
00
00
00
00
00
10
38
38
10
00
00
00
00
00
ENDCHAR
STARTCHAR char0B
ENCODING 11
SWIDTH 549 0
DWIDTH 8 0
BBX 8 14 0 -3
VVECTOR 4 11
SWIDTH1 0 -960
DWIDTH1 0 -14
BITMAP 
FE
FE
FE
FE
FE
FE
FE
FE
FE
FE
FE
FE
FE
FE
ENDCHAR
STARTCHAR char0C
ENCODING 12
SWIDTH 549 0
DWIDTH 8 0
BBX 8 14 0 -3
VVECTOR 4 11
SWIDTH1 0 -960
DWIDTH1 0 -14
BITMAP 
88
88
50
20
50
88
88
1C
22
22
22
22
22
1C
ENDCHAR
STARTCHAR char0D
ENCODING 13
SWIDTH 549 0
DWIDTH 8 0
BBX 8 14 0 -3
VVECTOR 4 11
SWIDTH1 0 -960
DWIDTH1 0 -14
BITMAP 
22
22
14
08
14
22
22
70
88
88
88
88
88
70
ENDCHAR
STARTCHAR char0E
ENCODING 14
SWIDTH 549 0
DWIDTH 8 0
BBX 8 14 0 -3
VVECTOR 4 11
SWIDTH1 0 -960
DWIDTH1 0 -14
BITMAP 
44
44
28
10
28
44
44
38
44
44
44
44
44
38
ENDCHAR
STARTCHAR char0F
ENCODING 15
SWIDTH 549 0
DWIDTH 8 0
BBX 8 14 0 -3
VVECTOR 4 11
SWIDTH1 0 -960
DWIDTH1 0 -14
BITMAP 
00
00
00
00
00
00
00
44
44
28
10
28
44
44
ENDCHAR
STARTCHAR char10
ENCODING 16
SWIDTH 549 0
DWIDTH 8 0
BBX 8 14 0 -3
VVECTOR 4 11
SWIDTH1 0 -960
DWIDTH1 0 -14
BITMAP 
00
00
00
00
00
00
00
38
44
44
44
44
44
38
ENDCHAR
STARTCHAR DELTA
ENCODING 17
SWIDTH 549 0
DWIDTH 8 0
BBX 8 14 0 -3
VVECTOR 4 11
SWIDTH1 0 -960
DWIDTH1 0 -14
BITMAP 
00
00
00
00
10
28
28
44
44
82
FE
00
00
00
ENDCHAR
STARTCHAR OHMS
ENCODING 18
SWIDTH 549 0
DWIDTH 8 0
BBX 8 14 0 -3
VVECTOR 4 11
SWIDTH1 0 -960
DWIDTH1 0 -14
BITMAP 
00
00
00
38
44
82
82
44
28
28
EE
00
00
00
ENDCHAR
STARTCHAR char13
ENCODING 19
SWIDTH 549 0
DWIDTH 8 0
BBX 8 14 0 -3
VVECTOR 4 11
SWIDTH1 0 -960
DWIDTH1 0 -14
BITMAP 
00
00
00
00
7C
44
44
44
C6
00
00
00
00
00
ENDCHAR
STARTCHAR char14
ENCODING 20
SWIDTH 549 0
DWIDTH 8 0
BBX 8 14 0 -3
VVECTOR 4 11
SWIDTH1 0 -960
DWIDTH1 0 -14
BITMAP 
00
00
00
00
C6
44
44
44
7C
00
00
00
00
00
ENDCHAR
STARTCHAR RISING
ENCODING 21
SWIDTH 549 0
DWIDTH 8 0
BBX 8 14 0 -3
VVECTOR 4 11
SWIDTH1 0 -960
DWIDTH1 0 -14
BITMAP 
00
00
1E
10
10
10
38
7C
10
10
F0
00
00
00
ENDCHAR
STARTCHAR FALLING
ENCODING 22
SWIDTH 549 0
DWIDTH 8 0
BBX 8 14 0 -3
VVECTOR 4 11
SWIDTH1 0 -960
DWIDTH1 0 -14
BITMAP 
00
00
F0
10
10
7C
38
10
10
10
1E
00
00
00
ENDCHAR
STARTCHAR GROUND
ENCODING 23
SWIDTH 549 0
DWIDTH 8 0
BBX 8 14 0 -3
VVECTOR 4 11
SWIDTH1 0 -960
DWIDTH1 0 -14
BITMAP 
00
00
10
10
10
10
FE
00
7C
00
10
00
00
00
ENDCHAR
STARTCHAR MICRO
ENCODING 24
SWIDTH 549 0
DWIDTH 8 0
BBX 8 14 0 -3
VVECTOR 4 11
SWIDTH1 0 -960
DWIDTH1 0 -14
BITMAP 
00
00
00
00
00
44
44
44
44
64
5A
40
80
00
ENDCHAR
STARTCHAR char19
ENCODING 25
SWIDTH 549 0
DWIDTH 8 0
BBX 8 14 0 -3
VVECTOR 4 11
SWIDTH1 0 -960
DWIDTH1 0 -14
BITMAP 
00
00
6C
24
24
24
24
24
24
24
24
00
00
00
ENDCHAR
STARTCHAR char1A
ENCODING 26
SWIDTH 549 0
DWIDTH 8 0
BBX 8 14 0 -3
VVECTOR 4 11
SWIDTH1 0 -960
DWIDTH1 0 -14
BITMAP 
00
00
10
10
10
FE
10
10
10
00
FE
00
00
00
ENDCHAR
STARTCHAR char1B
ENCODING 27
SWIDTH 549 0
DWIDTH 8 0
BBX 8 14 0 -3
VVECTOR 4 11
SWIDTH1 0 -960
DWIDTH1 0 -14
BITMAP 
00
00
40
20
10
08
10
20
40
00
7C
00
00
00
ENDCHAR
STARTCHAR char1C
ENCODING 28
SWIDTH 549 0
DWIDTH 8 0
BBX 8 14 0 -3
VVECTOR 4 11
SWIDTH1 0 -960
DWIDTH1 0 -14
BITMAP 
00
00
00
00
10
38
7C
FE
38
38
38
00
00
00
ENDCHAR
STARTCHAR char1D
ENCODING 29
SWIDTH 549 0
DWIDTH 8 0
BBX 8 14 0 -3
VVECTOR 4 11
SWIDTH1 0 -960
DWIDTH1 0 -14
BITMAP 
00
00
00
00
38
38
38
FE
7C
38
10
00
00
00
ENDCHAR
STARTCHAR char1E
ENCODING 30
SWIDTH 549 0
DWIDTH 8 0
BBX 8 14 0 -3
VVECTOR 4 11
SWIDTH1 0 -960
DWIDTH1 0 -14
BITMAP 
00
00
08
18
38
7E
FE
7E
38
18
08
00
00
00
ENDCHAR
STARTCHAR char1F
ENCODING 31
SWIDTH 549 0
DWIDTH 8 0
BBX 8 14 0 -3
VVECTOR 4 11
SWIDTH1 0 -960
DWIDTH1 0 -14
BITMAP 
00
00
20
30
38
FC
FE
FC
38
30
20
00
00
00
ENDCHAR
STARTCHAR BLANK
ENCODING 32
SWIDTH 549 0
DWIDTH 8 0
BBX 8 14 0 -3
VVECTOR 4 11
SWIDTH1 0 -960
DWIDTH1 0 -14
BITMAP 
00
00
00
00
00
00
00
00
00
00
00
00
00
00
ENDCHAR
STARTCHAR exclam
ENCODING 33
SWIDTH 549 0
DWIDTH 8 0
BBX 8 14 0 -3
VVECTOR 4 11
SWIDTH1 0 -960
DWIDTH1 0 -14
BITMAP 
00
00
10
10
10
10
10
10
00
10
10
00
00
00
ENDCHAR
STARTCHAR quotedbl
ENCODING 34
SWIDTH 549 0
DWIDTH 8 0
BBX 8 14 0 -3
VVECTOR 4 11
SWIDTH1 0 -960
DWIDTH1 0 -14
BITMAP 
00
00
24
24
48
00
00
00
00
00
00
00
00
00
ENDCHAR
STARTCHAR numbersign
ENCODING 35
SWIDTH 549 0
DWIDTH 8 0
BBX 8 14 0 -3
VVECTOR 4 11
SWIDTH1 0 -960
DWIDTH1 0 -14
BITMAP 
00
00
00
48
48
FC
48
FC
48
48
00
00
00
00
ENDCHAR
STARTCHAR dollar
ENCODING 36
SWIDTH 549 0
DWIDTH 8 0
BBX 8 14 0 -3
VVECTOR 4 11
SWIDTH1 0 -960
DWIDTH1 0 -14
BITMAP 
00
00
28
7C
AA
A8
7C
2A
AA
7C
28
00
00
00
ENDCHAR
STARTCHAR percent
ENCODING 37
SWIDTH 549 0
DWIDTH 8 0
BBX 8 14 0 -3
VVECTOR 4 11
SWIDTH1 0 -960
DWIDTH1 0 -14
BITMAP 
00
00
00
48
A8
50
10
20
28
54
48
00
00
00
ENDCHAR
STARTCHAR ampersand
ENCODING 38
SWIDTH 549 0
DWIDTH 8 0
BBX 8 14 0 -3
VVECTOR 4 11
SWIDTH1 0 -960
DWIDTH1 0 -14
BITMAP 
00
00
00
30
48
30
30
78
8C
88
74
00
00
00
ENDCHAR
STARTCHAR quotesingle
ENCODING 39
SWIDTH 549 0
DWIDTH 8 0
BBX 8 14 0 -3
VVECTOR 4 11
SWIDTH1 0 -960
DWIDTH1 0 -14
BITMAP 
00
00
10
10
20
00
00
00
00
00
00
00
00
00
ENDCHAR
STARTCHAR parenleft
ENCODING 40
SWIDTH 549 0
DWIDTH 8 0
BBX 8 14 0 -3
VVECTOR 4 11
SWIDTH1 0 -960
DWIDTH1 0 -14
BITMAP 
00
00
08
10
20
20
20
20
20
10
08
00
00
00
ENDCHAR
STARTCHAR parenright
ENCODING 41
SWIDTH 549 0
DWIDTH 8 0
BBX 8 14 0 -3
VVECTOR 4 11
SWIDTH1 0 -960
DWIDTH1 0 -14
BITMAP 
00
00
20
10
08
08
08
08
08
10
20
00
00
00
ENDCHAR
STARTCHAR asterisk
ENCODING 42
SWIDTH 549 0
DWIDTH 8 0
BBX 8 14 0 -3
VVECTOR 4 11
SWIDTH1 0 -960
DWIDTH1 0 -14
BITMAP 
00
00
00
00
10
54
38
54
10
00
00
00
00
00
ENDCHAR
STARTCHAR plus
ENCODING 43
SWIDTH 549 0
DWIDTH 8 0
BBX 8 14 0 -3
VVECTOR 4 11
SWIDTH1 0 -960
DWIDTH1 0 -14
BITMAP 
00
00
00
10
10
10
FE
10
10
10
00
00
00
00
ENDCHAR
STARTCHAR comma
ENCODING 44
SWIDTH 549 0
DWIDTH 8 0
BBX 8 14 0 -3
VVECTOR 4 11
SWIDTH1 0 -960
DWIDTH1 0 -14
BITMAP 
00
00
00
00
00
00
00
00
00
10
10
20
00
00
ENDCHAR
STARTCHAR hyphen
ENCODING 45
SWIDTH 549 0
DWIDTH 8 0
BBX 8 14 0 -3
VVECTOR 4 11
SWIDTH1 0 -960
DWIDTH1 0 -14
BITMAP 
00
00
00
00
00
00
FE
00
00
00
00
00
00
00
ENDCHAR
STARTCHAR period
ENCODING 46
SWIDTH 549 0
DWIDTH 8 0
BBX 8 14 0 -3
VVECTOR 4 11
SWIDTH1 0 -960
DWIDTH1 0 -14
BITMAP 
00
00
00
00
00
00
00
00
00
10
10
00
00
00
ENDCHAR
STARTCHAR slash
ENCODING 47
SWIDTH 549 0
DWIDTH 8 0
BBX 8 14 0 -3
VVECTOR 4 11
SWIDTH1 0 -960
DWIDTH1 0 -14
BITMAP 
00
00
04
04
08
08
10
10
20
20
40
00
00
00
ENDCHAR
STARTCHAR zero
ENCODING 48
SWIDTH 549 0
DWIDTH 8 0
BBX 8 14 0 -3
VVECTOR 4 11
SWIDTH1 0 -960
DWIDTH1 0 -14
BITMAP 
00
00
30
48
84
84
84
84
84
48
30
00
00
00
ENDCHAR
STARTCHAR one
ENCODING 49
SWIDTH 549 0
DWIDTH 8 0
BBX 8 14 0 -3
VVECTOR 4 11
SWIDTH1 0 -960
DWIDTH1 0 -14
BITMAP 
00
00
10
30
10
10
10
10
10
10
10
00
00
00
ENDCHAR
STARTCHAR two
ENCODING 50
SWIDTH 549 0
DWIDTH 8 0
BBX 8 14 0 -3
VVECTOR 4 11
SWIDTH1 0 -960
DWIDTH1 0 -14
BITMAP 
00
00
38
44
84
04
08
10
20
40
FC
00
00
00
ENDCHAR
STARTCHAR three
ENCODING 51
SWIDTH 549 0
DWIDTH 8 0
BBX 8 14 0 -3
VVECTOR 4 11
SWIDTH1 0 -960
DWIDTH1 0 -14
BITMAP 
00
00
FC
08
10
30
08
04
04
88
70
00
00
00
ENDCHAR
STARTCHAR four
ENCODING 52
SWIDTH 549 0
DWIDTH 8 0
BBX 8 14 0 -3
VVECTOR 4 11
SWIDTH1 0 -960
DWIDTH1 0 -14
BITMAP 
00
00
04
0C
14
24
44
84
FC
04
04
00
00
00
ENDCHAR
STARTCHAR five
ENCODING 53
SWIDTH 549 0
DWIDTH 8 0
BBX 8 14 0 -3
VVECTOR 4 11
SWIDTH1 0 -960
DWIDTH1 0 -14
BITMAP 
00
00
FC
80
80
F8
04
04
04
84
78
00
00
00
ENDCHAR
STARTCHAR six
ENCODING 54
SWIDTH 549 0
DWIDTH 8 0
BBX 8 14 0 -3
VVECTOR 4 11
SWIDTH1 0 -960
DWIDTH1 0 -14
BITMAP 
00
00
38
40
80
F8
84
84
84
84
78
00
00
00
ENDCHAR
STARTCHAR seven
ENCODING 55
SWIDTH 549 0
DWIDTH 8 0
BBX 8 14 0 -3
VVECTOR 4 11
SWIDTH1 0 -960
DWIDTH1 0 -14
BITMAP 
00
00
FC
04
08
08
10
10
20
20
20
00
00
00
ENDCHAR
STARTCHAR eight
ENCODING 56
SWIDTH 549 0
DWIDTH 8 0
BBX 8 14 0 -3
VVECTOR 4 11
SWIDTH1 0 -960
DWIDTH1 0 -14
BITMAP 
00
00
78
84
84
78
84
84
84
84
78
00
00
00
ENDCHAR
STARTCHAR nine
ENCODING 57
SWIDTH 549 0
DWIDTH 8 0
BBX 8 14 0 -3
VVECTOR 4 11
SWIDTH1 0 -960
DWIDTH1 0 -14
BITMAP 
00
00
78
84
84
84
84
7C
04
08
70
00
00
00
ENDCHAR
STARTCHAR colon
ENCODING 58
SWIDTH 549 0
DWIDTH 8 0
BBX 8 14 0 -3
VVECTOR 4 11
SWIDTH1 0 -960
DWIDTH1 0 -14
BITMAP 
00
00
00
00
10
10
00
10
10
00
00
00
00
00
ENDCHAR
STARTCHAR semicolon
ENCODING 59
SWIDTH 549 0
DWIDTH 8 0
BBX 8 14 0 -3
VVECTOR 4 11
SWIDTH1 0 -960
DWIDTH1 0 -14
BITMAP 
00
00
00
00
00
10
10
00
00
10
10
20
00
00
ENDCHAR
STARTCHAR less
ENCODING 60
SWIDTH 549 0
DWIDTH 8 0
BBX 8 14 0 -3
VVECTOR 4 11
SWIDTH1 0 -960
DWIDTH1 0 -14
BITMAP 
00
00
00
08
10
20
40
20
10
08
00
00
00
00
ENDCHAR
STARTCHAR equal
ENCODING 61
SWIDTH 549 0
DWIDTH 8 0
BBX 8 14 0 -3
VVECTOR 4 11
SWIDTH1 0 -960
DWIDTH1 0 -14
BITMAP 
00
00
00
00
00
7C
00
7C
00
00
00
00
00
00
ENDCHAR
STARTCHAR greater
ENCODING 62
SWIDTH 549 0
DWIDTH 8 0
BBX 8 14 0 -3
VVECTOR 4 11
SWIDTH1 0 -960
DWIDTH1 0 -14
BITMAP 
00
00
00
40
20
10
08
10
20
40
00
00
00
00
ENDCHAR
STARTCHAR question
ENCODING 63
SWIDTH 549 0
DWIDTH 8 0
BBX 8 14 0 -3
VVECTOR 4 11
SWIDTH1 0 -960
DWIDTH1 0 -14
BITMAP 
00
00
38
44
04
08
10
10
00
10
10
00
00
00
ENDCHAR
STARTCHAR at
ENCODING 64
SWIDTH 549 0
DWIDTH 8 0
BBX 8 14 0 -3
VVECTOR 4 11
SWIDTH1 0 -960
DWIDTH1 0 -14
BITMAP 
00
00
38
44
92
AA
AA
AA
9A
44
3C
00
00
00
ENDCHAR
STARTCHAR A
ENCODING 65
SWIDTH 549 0
DWIDTH 8 0
BBX 8 14 0 -3
VVECTOR 4 11
SWIDTH1 0 -960
DWIDTH1 0 -14
BITMAP 
00
00
30
48
48
84
84
FC
84
84
84
00
00
00
ENDCHAR
STARTCHAR B
ENCODING 66
SWIDTH 549 0
DWIDTH 8 0
BBX 8 14 0 -3
VVECTOR 4 11
SWIDTH1 0 -960
DWIDTH1 0 -14
BITMAP 
00
00
F8
84
84
F8
84
84
84
84
F8
00
00
00
ENDCHAR
STARTCHAR C
ENCODING 67
SWIDTH 549 0
DWIDTH 8 0
BBX 8 14 0 -3
VVECTOR 4 11
SWIDTH1 0 -960
DWIDTH1 0 -14
BITMAP 
00
00
78
84
80
80
80
80
80
84
78
00
00
00
ENDCHAR
STARTCHAR D
ENCODING 68
SWIDTH 549 0
DWIDTH 8 0
BBX 8 14 0 -3
VVECTOR 4 11
SWIDTH1 0 -960
DWIDTH1 0 -14
BITMAP 
00
00
F0
88
84
84
84
84
84
88
F0
00
00
00
ENDCHAR
STARTCHAR E
ENCODING 69
SWIDTH 549 0
DWIDTH 8 0
BBX 8 14 0 -3
VVECTOR 4 11
SWIDTH1 0 -960
DWIDTH1 0 -14
BITMAP 
00
00
FC
80
80
80
F8
80
80
80
FC
00
00
00
ENDCHAR
STARTCHAR F
ENCODING 70
SWIDTH 549 0
DWIDTH 8 0
BBX 8 14 0 -3
VVECTOR 4 11
SWIDTH1 0 -960
DWIDTH1 0 -14
BITMAP 
00
00
FC
80
80
80
F0
80
80
80
80
00
00
00
ENDCHAR
STARTCHAR G
ENCODING 71
SWIDTH 549 0
DWIDTH 8 0
BBX 8 14 0 -3
VVECTOR 4 11
SWIDTH1 0 -960
DWIDTH1 0 -14
BITMAP 
00
00
78
84
80
80
9C
84
84
84
78
00
00
00
ENDCHAR
STARTCHAR H
ENCODING 72
SWIDTH 549 0
DWIDTH 8 0
BBX 8 14 0 -3
VVECTOR 4 11
SWIDTH1 0 -960
DWIDTH1 0 -14
BITMAP 
00
00
84
84
84
84
FC
84
84
84
84
00
00
00
ENDCHAR
STARTCHAR I
ENCODING 73
SWIDTH 549 0
DWIDTH 8 0
BBX 8 14 0 -3
VVECTOR 4 11
SWIDTH1 0 -960
DWIDTH1 0 -14
BITMAP 
00
00
7C
10
10
10
10
10
10
10
7C
00
00
00
ENDCHAR
STARTCHAR J
ENCODING 74
SWIDTH 549 0
DWIDTH 8 0
BBX 8 14 0 -3
VVECTOR 4 11
SWIDTH1 0 -960
DWIDTH1 0 -14
BITMAP 
00
00
04
04
04
04
04
04
84
84
78
00
00
00
ENDCHAR
STARTCHAR K
ENCODING 75
SWIDTH 549 0
DWIDTH 8 0
BBX 8 14 0 -3
VVECTOR 4 11
SWIDTH1 0 -960
DWIDTH1 0 -14
BITMAP 
00
00
84
88
90
A0
C0
A0
90
88
84
00
00
00
ENDCHAR
STARTCHAR L
ENCODING 76
SWIDTH 549 0
DWIDTH 8 0
BBX 8 14 0 -3
VVECTOR 4 11
SWIDTH1 0 -960
DWIDTH1 0 -14
BITMAP 
00
00
80
80
80
80
80
80
80
80
FC
00
00
00
ENDCHAR
STARTCHAR M
ENCODING 77
SWIDTH 549 0
DWIDTH 8 0
BBX 8 14 0 -3
VVECTOR 4 11
SWIDTH1 0 -960
DWIDTH1 0 -14
BITMAP 
00
00
84
CC
B4
84
84
84
84
84
84
00
00
00
ENDCHAR
STARTCHAR N
ENCODING 78
SWIDTH 549 0
DWIDTH 8 0
BBX 8 14 0 -3
VVECTOR 4 11
SWIDTH1 0 -960
DWIDTH1 0 -14
BITMAP 
00
00
C4
C4
A4
A4
94
94
8C
8C
84
00
00
00
ENDCHAR
STARTCHAR O
ENCODING 79
SWIDTH 549 0
DWIDTH 8 0
BBX 8 14 0 -3
VVECTOR 4 11
SWIDTH1 0 -960
DWIDTH1 0 -14
BITMAP 
00
00
78
84
84
84
84
84
84
84
78
00
00
00
ENDCHAR
STARTCHAR P
ENCODING 80
SWIDTH 549 0
DWIDTH 8 0
BBX 8 14 0 -3
VVECTOR 4 11
SWIDTH1 0 -960
DWIDTH1 0 -14
BITMAP 
00
00
F8
84
84
84
F8
80
80
80
80
00
00
00
ENDCHAR
STARTCHAR Q
ENCODING 81
SWIDTH 549 0
DWIDTH 8 0
BBX 8 14 0 -3
VVECTOR 4 11
SWIDTH1 0 -960
DWIDTH1 0 -14
BITMAP 
00
00
78
84
84
84
84
A4
94
88
74
00
00
00
ENDCHAR
STARTCHAR R
ENCODING 82
SWIDTH 549 0
DWIDTH 8 0
BBX 8 14 0 -3
VVECTOR 4 11
SWIDTH1 0 -960
DWIDTH1 0 -14
BITMAP 
00
00
F8
84
84
84
F8
A0
90
88
84
00
00
00
ENDCHAR
STARTCHAR S
ENCODING 83
SWIDTH 549 0
DWIDTH 8 0
BBX 8 14 0 -3
VVECTOR 4 11
SWIDTH1 0 -960
DWIDTH1 0 -14
BITMAP 
00
00
78
84
80
80
78
04
04
84
78
00
00
00
ENDCHAR
STARTCHAR T
ENCODING 84
SWIDTH 549 0
DWIDTH 8 0
BBX 8 14 0 -3
VVECTOR 4 11
SWIDTH1 0 -960
DWIDTH1 0 -14
BITMAP 
00
00
FE
10
10
10
10
10
10
10
10
00
00
00
ENDCHAR
STARTCHAR U
ENCODING 85
SWIDTH 549 0
DWIDTH 8 0
BBX 8 14 0 -3
VVECTOR 4 11
SWIDTH1 0 -960
DWIDTH1 0 -14
BITMAP 
00
00
84
84
84
84
84
84
84
84
78
00
00
00
ENDCHAR
STARTCHAR V
ENCODING 86
SWIDTH 549 0
DWIDTH 8 0
BBX 8 14 0 -3
VVECTOR 4 11
SWIDTH1 0 -960
DWIDTH1 0 -14
BITMAP 
00
00
84
84
84
48
48
48
30
30
30
00
00
00
ENDCHAR
STARTCHAR W
ENCODING 87
SWIDTH 549 0
DWIDTH 8 0
BBX 8 14 0 -3
VVECTOR 4 11
SWIDTH1 0 -960
DWIDTH1 0 -14
BITMAP 
00
00
84
84
84
B4
B4
CC
CC
84
84
00
00
00
ENDCHAR
STARTCHAR X
ENCODING 88
SWIDTH 549 0
DWIDTH 8 0
BBX 8 14 0 -3
VVECTOR 4 11
SWIDTH1 0 -960
DWIDTH1 0 -14
BITMAP 
00
00
84
84
48
48
30
30
48
84
84
00
00
00
ENDCHAR
STARTCHAR Y
ENCODING 89
SWIDTH 549 0
DWIDTH 8 0
BBX 8 14 0 -3
VVECTOR 4 11
SWIDTH1 0 -960
DWIDTH1 0 -14
BITMAP 
00
00
44
44
44
28
28
10
10
10
10
00
00
00
ENDCHAR
STARTCHAR Z
ENCODING 90
SWIDTH 549 0
DWIDTH 8 0
BBX 8 14 0 -3
VVECTOR 4 11
SWIDTH1 0 -960
DWIDTH1 0 -14
BITMAP 
00
00
FC
04
08
10
20
20
40
80
FC
00
00
00
ENDCHAR
STARTCHAR bracketleft
ENCODING 91
SWIDTH 549 0
DWIDTH 8 0
BBX 8 14 0 -3
VVECTOR 4 11
SWIDTH1 0 -960
DWIDTH1 0 -14
BITMAP 
00
00
38
20
20
20
20
20
20
20
38
00
00
00
ENDCHAR
STARTCHAR backslash
ENCODING 92
SWIDTH 549 0
DWIDTH 8 0
BBX 8 14 0 -3
VVECTOR 4 11
SWIDTH1 0 -960
DWIDTH1 0 -14
BITMAP 
00
00
40
40
20
20
10
10
08
08
04
00
00
00
ENDCHAR
STARTCHAR bracketright
ENCODING 93
SWIDTH 549 0
DWIDTH 8 0
BBX 8 14 0 -3
VVECTOR 4 11
SWIDTH1 0 -960
DWIDTH1 0 -14
BITMAP 
00
00
38
08
08
08
08
08
08
08
38
00
00
00
ENDCHAR
STARTCHAR asciicircum
ENCODING 94
SWIDTH 549 0
DWIDTH 8 0
BBX 8 14 0 -3
VVECTOR 4 11
SWIDTH1 0 -960
DWIDTH1 0 -14
BITMAP 
00
00
10
28
44
00
00
00
00
00
00
00
00
00
ENDCHAR
STARTCHAR underscore
ENCODING 95
SWIDTH 549 0
DWIDTH 8 0
BBX 8 14 0 -3
VVECTOR 4 11
SWIDTH1 0 -960
DWIDTH1 0 -14
BITMAP 
00
00
00
00
00
00
00
00
00
00
FE
00
00
00
ENDCHAR
STARTCHAR grave
ENCODING 96
SWIDTH 549 0
DWIDTH 8 0
BBX 8 14 0 -3
VVECTOR 4 11
SWIDTH1 0 -960
DWIDTH1 0 -14
BITMAP 
00
00
20
20
10
00
00
00
00
00
00
00
00
00
ENDCHAR
STARTCHAR a
ENCODING 97
SWIDTH 549 0
DWIDTH 8 0
BBX 8 14 0 -3
VVECTOR 4 11
SWIDTH1 0 -960
DWIDTH1 0 -14
BITMAP 
00
00
00
00
38
44
3C
44
44
44
3C
00
00
00
ENDCHAR
STARTCHAR b
ENCODING 98
SWIDTH 549 0
DWIDTH 8 0
BBX 8 14 0 -3
VVECTOR 4 11
SWIDTH1 0 -960
DWIDTH1 0 -14
BITMAP 
00
00
40
40
78
44
44
44
44
44
78
00
00
00
ENDCHAR
STARTCHAR c
ENCODING 99
SWIDTH 549 0
DWIDTH 8 0
BBX 8 14 0 -3
VVECTOR 4 11
SWIDTH1 0 -960
DWIDTH1 0 -14
BITMAP 
00
00
00
00
38
44
40
40
40
44
38
00
00
00
ENDCHAR
STARTCHAR d
ENCODING 100
SWIDTH 549 0
DWIDTH 8 0
BBX 8 14 0 -3
VVECTOR 4 11
SWIDTH1 0 -960
DWIDTH1 0 -14
BITMAP 
00
00
04
04
3C
44
44
44
44
44
3C
00
00
00
ENDCHAR
STARTCHAR e
ENCODING 101
SWIDTH 549 0
DWIDTH 8 0
BBX 8 14 0 -3
VVECTOR 4 11
SWIDTH1 0 -960
DWIDTH1 0 -14
BITMAP 
00
00
00
00
38
44
44
7C
40
44
38
00
00
00
ENDCHAR
STARTCHAR f
ENCODING 102
SWIDTH 549 0
DWIDTH 8 0
BBX 8 14 0 -3
VVECTOR 4 11
SWIDTH1 0 -960
DWIDTH1 0 -14
BITMAP 
00
00
18
20
70
20
20
20
20
20
20
00
00
00
ENDCHAR
STARTCHAR g
ENCODING 103
SWIDTH 549 0
DWIDTH 8 0
BBX 8 14 0 -3
VVECTOR 4 11
SWIDTH1 0 -960
DWIDTH1 0 -14
BITMAP 
00
00
00
00
3C
44
44
44
44
44
3C
04
44
38
ENDCHAR
STARTCHAR h
ENCODING 104
SWIDTH 549 0
DWIDTH 8 0
BBX 8 14 0 -3
VVECTOR 4 11
SWIDTH1 0 -960
DWIDTH1 0 -14
BITMAP 
00
00
40
40
58
64
44
44
44
44
44
00
00
00
ENDCHAR
STARTCHAR i
ENCODING 105
SWIDTH 549 0
DWIDTH 8 0
BBX 8 14 0 -3
VVECTOR 4 11
SWIDTH1 0 -960
DWIDTH1 0 -14
BITMAP 
00
00
10
00
30
10
10
10
10
10
38
00
00
00
ENDCHAR
STARTCHAR j
ENCODING 106
SWIDTH 549 0
DWIDTH 8 0
BBX 8 14 0 -3
VVECTOR 4 11
SWIDTH1 0 -960
DWIDTH1 0 -14
BITMAP 
00
00
08
00
18
08
08
08
08
08
08
08
08
30
ENDCHAR
STARTCHAR k
ENCODING 107
SWIDTH 549 0
DWIDTH 8 0
BBX 8 14 0 -3
VVECTOR 4 11
SWIDTH1 0 -960
DWIDTH1 0 -14
BITMAP 
00
00
40
40
44
48
50
60
50
48
44
00
00
00
ENDCHAR
STARTCHAR l
ENCODING 108
SWIDTH 549 0
DWIDTH 8 0
BBX 8 14 0 -3
VVECTOR 4 11
SWIDTH1 0 -960
DWIDTH1 0 -14
BITMAP 
00
00
30
10
10
10
10
10
10
10
10
00
00
00
ENDCHAR
STARTCHAR m
ENCODING 109
SWIDTH 549 0
DWIDTH 8 0
BBX 8 14 0 -3
VVECTOR 4 11
SWIDTH1 0 -960
DWIDTH1 0 -14
BITMAP 
00
00
00
00
EC
92
92
92
92
92
92
00
00
00
ENDCHAR
STARTCHAR n
ENCODING 110
SWIDTH 549 0
DWIDTH 8 0
BBX 8 14 0 -3
VVECTOR 4 11
SWIDTH1 0 -960
DWIDTH1 0 -14
BITMAP 
00
00
00
00
58
64
44
44
44
44
44
00
00
00
ENDCHAR
STARTCHAR o
ENCODING 111
SWIDTH 549 0
DWIDTH 8 0
BBX 8 14 0 -3
VVECTOR 4 11
SWIDTH1 0 -960
DWIDTH1 0 -14
BITMAP 
00
00
00
00
38
44
44
44
44
44
38
00
00
00
ENDCHAR
STARTCHAR p
ENCODING 112
SWIDTH 549 0
DWIDTH 8 0
BBX 8 14 0 -3
VVECTOR 4 11
SWIDTH1 0 -960
DWIDTH1 0 -14
BITMAP 
00
00
00
00
78
44
44
44
44
44
78
40
40
40
ENDCHAR
STARTCHAR q
ENCODING 113
SWIDTH 549 0
DWIDTH 8 0
BBX 8 14 0 -3
VVECTOR 4 11
SWIDTH1 0 -960
DWIDTH1 0 -14
BITMAP 
00
00
00
00
3C
44
44
44
44
44
3C
04
04
04
ENDCHAR
STARTCHAR r
ENCODING 114
SWIDTH 549 0
DWIDTH 8 0
BBX 8 14 0 -3
VVECTOR 4 11
SWIDTH1 0 -960
DWIDTH1 0 -14
BITMAP 
00
00
00
00
5C
60
40
40
40
40
40
00
00
00
ENDCHAR
STARTCHAR s
ENCODING 115
SWIDTH 549 0
DWIDTH 8 0
BBX 8 14 0 -3
VVECTOR 4 11
SWIDTH1 0 -960
DWIDTH1 0 -14
BITMAP 
00
00
00
00
38
44
40
38
04
44
38
00
00
00
ENDCHAR
STARTCHAR t
ENCODING 116
SWIDTH 549 0
DWIDTH 8 0
BBX 8 14 0 -3
VVECTOR 4 11
SWIDTH1 0 -960
DWIDTH1 0 -14
BITMAP 
00
00
10
10
38
10
10
10
10
10
0C
00
00
00
ENDCHAR
STARTCHAR u
ENCODING 117
SWIDTH 549 0
DWIDTH 8 0
BBX 8 14 0 -3
VVECTOR 4 11
SWIDTH1 0 -960
DWIDTH1 0 -14
BITMAP 
00
00
00
00
44
44
44
44
44
4C
34
00
00
00
ENDCHAR
STARTCHAR v
ENCODING 118
SWIDTH 549 0
DWIDTH 8 0
BBX 8 14 0 -3
VVECTOR 4 11
SWIDTH1 0 -960
DWIDTH1 0 -14
BITMAP 
00
00
00
00
44
44
44
28
28
10
10
00
00
00
ENDCHAR
STARTCHAR w
ENCODING 119
SWIDTH 549 0
DWIDTH 8 0
BBX 8 14 0 -3
VVECTOR 4 11
SWIDTH1 0 -960
DWIDTH1 0 -14
BITMAP 
00
00
00
00
84
84
84
84
B4
CC
84
00
00
00
ENDCHAR
STARTCHAR x
ENCODING 120
SWIDTH 549 0
DWIDTH 8 0
BBX 8 14 0 -3
VVECTOR 4 11
SWIDTH1 0 -960
DWIDTH1 0 -14
BITMAP 
00
00
00
00
44
44
28
10
28
44
44
00
00
00
ENDCHAR
STARTCHAR y
ENCODING 121
SWIDTH 549 0
DWIDTH 8 0
BBX 8 14 0 -3
VVECTOR 4 11
SWIDTH1 0 -960
DWIDTH1 0 -14
BITMAP 
00
00
00
00
44
44
44
44
44
44
3C
04
44
38
ENDCHAR
STARTCHAR z
ENCODING 122
SWIDTH 549 0
DWIDTH 8 0
BBX 8 14 0 -3
VVECTOR 4 11
SWIDTH1 0 -960
DWIDTH1 0 -14
BITMAP 
00
00
00
00
7C
04
08
10
20
40
7C
00
00
00
ENDCHAR
STARTCHAR braceleft
ENCODING 123
SWIDTH 549 0
DWIDTH 8 0
BBX 8 14 0 -3
VVECTOR 4 11
SWIDTH1 0 -960
DWIDTH1 0 -14
BITMAP 
00
00
1C
20
20
20
40
20
20
20
1C
00
00
00
ENDCHAR
STARTCHAR bar
ENCODING 124
SWIDTH 549 0
DWIDTH 8 0
BBX 8 14 0 -3
VVECTOR 4 11
SWIDTH1 0 -960
DWIDTH1 0 -14
BITMAP 
00
00
10
10
10
10
10
10
10
10
10
00
00
00
ENDCHAR
STARTCHAR braceright
ENCODING 125
SWIDTH 549 0
DWIDTH 8 0
BBX 8 14 0 -3
VVECTOR 4 11
SWIDTH1 0 -960
DWIDTH1 0 -14
BITMAP 
00
00
70
08
08
08
04
08
08
08
70
00
00
00
ENDCHAR
STARTCHAR asciitilde
ENCODING 126
SWIDTH 549 0
DWIDTH 8 0
BBX 8 14 0 -3
VVECTOR 4 11
SWIDTH1 0 -960
DWIDTH1 0 -14
BITMAP 
00
00
00
60
92
0C
00
00
00
00
00
00
00
00
ENDCHAR
STARTCHAR DEL
ENCODING 127
SWIDTH 549 0
DWIDTH 8 0
BBX 8 14 0 -3
VVECTOR 4 11
SWIDTH1 0 -960
DWIDTH1 0 -14
BITMAP 
00
00
AA
54
AA
54
AA
54
AA
54
AA
00
00
00
ENDCHAR
ENDFONT
